<svg width="50" height="50" viewBox="0 0 50 50" fill="none" xmlns="http://www.w3.org/2000/svg">
<circle cx="24.9356" cy="24.9356" r="24.9356" fill="#37AEE2"/>
<path d="M34.3467 11.6482C33.9675 11.6649 33.6141 11.7754 33.3031 11.9011C33.0117 12.0183 31.8984 12.4958 30.1449 13.2478C28.3898 14.0005 26.0659 14.9982 23.5869 16.0642C18.629 18.1963 13.0549 20.5963 10.1999 21.8246C10.0925 21.8708 9.71791 21.9905 9.32031 22.3009C8.92272 22.6113 8.5 23.2544 8.5 23.9711C8.5 24.549 8.77541 25.1231 9.12207 25.4659C9.46873 25.8087 9.83554 25.978 10.1497 26.1062C11.2898 26.5714 14.8255 28.0183 15.4932 28.2914C15.7281 29.0112 17.0079 32.926 17.3047 33.8855C17.5003 34.5187 17.6866 34.9152 17.929 35.2299C18.0503 35.3873 18.1912 35.5252 18.362 35.6332C18.4302 35.6764 18.5051 35.7097 18.5807 35.7403L18.5853 35.7426C18.6027 35.7496 18.6177 35.7615 18.6354 35.7677C18.6688 35.7793 18.6911 35.7807 18.7357 35.7905C18.9134 35.8478 19.0928 35.8839 19.2529 35.8839C19.9356 35.8839 20.3535 35.5079 20.3535 35.5079L20.3786 35.4897L23.89 32.4522L28.1488 36.4809C28.2087 36.5657 28.768 37.3331 30.0013 37.3331C30.7336 37.3331 31.3145 36.9656 31.6875 36.5743C32.0605 36.183 32.2928 35.7719 32.3916 35.255V35.2527C32.484 34.7642 36.4089 14.615 36.4089 14.615L36.402 14.6423C36.5169 14.1179 36.547 13.6295 36.4203 13.1476C36.2935 12.6656 35.9594 12.2041 35.5453 11.9558C35.1311 11.7076 34.7259 11.6315 34.3467 11.6482ZM34.1279 14.0864C34.1223 14.1204 34.1321 14.1033 34.1234 14.1433L34.1211 14.157L34.1188 14.1707C34.1188 14.1707 30.2426 34.0622 30.0993 34.8198C30.1098 34.7625 30.0618 34.8763 30.0127 34.9451C29.9432 34.8972 29.8008 34.8357 29.8008 34.8357L29.778 34.8106L23.9606 29.3077L19.8477 32.8624L21.0713 27.9633C21.0713 27.9633 28.7202 20.0456 29.181 19.5847C29.552 19.2161 29.6299 19.0875 29.6299 18.9604C29.6299 18.79 29.5411 18.6664 29.3428 18.6664C29.1643 18.6664 28.9242 18.84 28.7959 18.9216C27.124 19.9874 19.7838 24.2654 16.4935 26.1791C15.9706 25.9651 12.3379 24.4782 11.1068 23.9757C11.1161 23.9716 11.113 23.973 11.1227 23.9688C13.9785 22.7402 19.5502 20.3402 24.5075 18.2084C26.9861 17.1425 29.3118 16.1441 31.0654 15.392C32.7921 14.6516 33.9918 14.142 34.1279 14.0864Z" fill="white"/>
</svg>
